{"title":"Zoo.S01E06.HDTV.480p.x264.AAC-VYTO [P2PDL]","uid":12197054,"size":159806544,"categoryP":"video","categoryS":"hd___tv_shows","magnet":"?xt=urn:btih:9970e43cbe87ed805f2412b0d32b38d3928cb05f&amp;dn=Zoo.S01E06.HDTV.480p.x264.AAC-VYTO+%5BP2PDL%5D&amp;tr=udp%3A%2F%2Ftracker.openbittorrent.com%3A80&amp;tr=udp%3A%2F%2Fopen.demonii.com%3A1337&amp;tr=udp%3A%2F%2Ftracker.coppersurfer.tk%3A6969&amp;tr=udp%3A%2F%2Fexodus.desync.com%3A6969","seeders":2,"leechers":0,"uploader":"ValidusVyto","files":6,"time":1438764933,"description":"____    ____ ____    ____ .___________.  ______   \n     /   /      /   / |           | /  __    \n    /   /      /   /  `---|  |----`|  |  |  | \n        /     _    _/       |  |     |  |  |  | \n       /        |  |         |  |     |  `--'  | \n    __/         |__|         |__|      ______/  \n                                                  \nPresenting Small Encodes with quality for years!\n                                                                                                   \n                                                                                                   \n\nZoo.S01E06.HDTV.480p.x264.AAC-VYTO\n\n\nGeneral\nFormat                         : MPEG-4\nFile size                      : 146 MiB\nDuration                       : 42mn 51s\nOverall bit rate               : 475 Kbps\n\nVideo\nFormat                         : AVC\nBit rate                       : 440 Kbps\nWidth                          : 720 pixels\nHeight                         : 400 pixels\nDisplay aspect ratio           : 16:9\nFrame rate mode                : Constant\nFrame rate                     : 23.976 fps\nBit depth                      : 8 bits\nStream size                    : 135 MiB (93%)\nWriting library                : x264 core 146 r2538 121396c\n\nAudio\nFormat                         : AAC\nBit rate mode                  : Variable\nBit rate                       : 32.0 Kbps\nChannel(s)                     : 2 channels\nChannel positions              : Front: L R \nSampling rate                  : 48.0 KHz \nStream size                    : 9.81 MiB (7%)\n\n\nScreenshots:\n &lt;a href=&quot;\nhttp://ititli.com/2q&quot; rel=&quot;nofollow&quot; target=&quot;_NEW&quot;&gt;\nhttp://ititli.com/2q&lt;/a&gt; &lt;a href=&quot;\nhttp://ititli.com/2r&quot; rel=&quot;nofollow&quot; target=&quot;_NEW&quot;&gt;\nhttp://ititli.com/2r&lt;/a&gt; &lt;a href=&quot;\nhttp://ititli.com/21&quot; rel=&quot;nofollow&quot; target=&quot;_NEW&quot;&gt;\nhttp://ititli.com/21&lt;/a&gt; &lt;a href=&quot;\nhttp://ititli.com/2T&quot; rel=&quot;nofollow&quot; target=&quot;_NEW&quot;&gt;\nhttp://ititli.com/2T&lt;/a&gt; &lt;a href=&quot;\nhttp://ititli.com/2W&quot; rel=&quot;nofollow&quot; target=&quot;_NEW&quot;&gt;\nhttp://ititli.com/2W&lt;/a&gt; &lt;a href=&quot;\nhttp://ititli.com/2g&quot; rel=&quot;nofollow&quot; target=&quot;_NEW&quot;&gt;\nhttp://ititli.com/2g&lt;/a&gt; &lt;a href=&quot;\nhttp://ititli.com/2n&quot; rel=&quot;nofollow&quot; target=&quot;_NEW&quot;&gt;\nhttp://ititli.com/2n&lt;/a&gt; &lt;a href=&quot;\nhttp://ititli.com/2w&quot; rel=&quot;nofollow&quot; target=&quot;_NEW&quot;&gt;\nhttp://ititli.com/2w&lt;/a&gt; &lt;a href=&quot;\nhttp://ititli.com/22&quot; rel=&quot;nofollow&quot; target=&quot;_NEW&quot;&gt;\nhttp://ititli.com/22&lt;/a&gt; &lt;a href=&quot;\nhttp://ititli.com/26&quot; rel=&quot;nofollow&quot; target=&quot;_NEW&quot;&gt;\nhttp://ititli.com/26&lt;/a&gt; &lt;a href=&quot;\nhttp://ititli.com/28&quot; rel=&quot;nofollow&quot; target=&quot;_NEW&quot;&gt;\nhttp://ititli.com/28&lt;/a&gt; &lt;a href=&quot;\nhttp://ititli.com/2e&quot; rel=&quot;nofollow&quot; target=&quot;_NEW&quot;&gt;\nhttp://ititli.com/2e&lt;/a&gt;\n\n----------------------------------------------------------------------------------------------------\n\n\nEncoder Notes: Looking For Early Access To Anything You Can Provide DVDScr, R5, DVDR, BluRay, Direct\nAudio, Music Releases and Seedboxes. If You Got anything to offer please contact us.\n\nSupport us by donating BC - 1FgwdzPsd1y25Gea8wP1qni35uGCtmkRCD","torrent":{"xt":"urn:btih:9970e43cbe87ed805f2412b0d32b38d3928cb05f","amp;dn":"Zoo.S01E06.HDTV.480p.x264.AAC-VYTO+%5BP2PDL%5D","amp;tr":["udp%3A%2F%2Ftracker.openbittorrent.com%3A80","udp%3A%2F%2Fopen.demonii.com%3A1337","udp%3A%2F%2Ftracker.coppersurfer.tk%3A6969","udp%3A%2F%2Fexodus.desync.com%3A6969"],"infoHash":"9970e43cbe87ed805f2412b0d32b38d3928cb05f","infoHashBuffer":{"type":"Buffer","data":[153,112,228,60,190,135,237,128,95,36,18,176,211,43,56,211,146,140,176,95]},"announce":[],"urlList":[]}}